<?xml version="1.0" standalone="no"?>
<!DOCTYPE svg PUBLIC "-//W3C//DTD SVG 20010904//EN"
 "http://www.w3.org/TR/2001/REC-SVG-20010904/DTD/svg10.dtd">
<svg version="1.0" xmlns="http://www.w3.org/2000/svg"
 width="700.000000pt" height="700.000000pt" viewBox="0 0 700.000000 700.000000"
 preserveAspectRatio="xMidYMid meet">
<metadata>
Created by potrace 1.11, written by Peter Selinger 2001-2013
</metadata>
<g transform="translate(0.000000,700.000000) scale(0.100000,-0.100000)"
fill="#000000" stroke="none">
<path d="M335 6986 c-159 -39 -291 -177 -325 -340 -7 -35 -9 -1030 -8 -3176
l3 -3125 22 -54 c51 -123 141 -215 261 -263 l57 -23 3155 0 3155 0 57 23 c120
48 210 140 261 263 l22 54 3 3125 c1 2146 -1 3141 -8 3176 -35 168 -174 309
-338 343 -80 17 -6248 14 -6317 -3z m2285 -1736 l0 -870 -870 0 -870 0 0 870
0 870 870 0 870 0 0 -870z m3500 0 l0 -870 -1525 0 -1525 0 0 870 0 870 1525
0 1525 0 0 -870z m-3940 -1970 l0 -650 -650 0 -650 0 0 650 0 650 650 0 650 0
0 -650z m1750 0 l0 -650 -650 0 -650 0 0 650 0 650 650 0 650 0 0 -650z m2190
0 l0 -650 -870 0 -870 0 0 650 0 650 870 0 870 0 0 -650z m-2620 -1750 l0
-650 -1310 0 -1310 0 0 650 0 650 1310 0 1310 0 0 -650z m2620 0 l0 -650
-1090 0 -1090 0 0 650 0 650 1090 0 1090 0 0 -650z"/>
</g>
</svg>
